<svg width="16" height="15" viewBox="0 0 16 15" fill="none" xmlns="http://www.w3.org/2000/svg">
<path d="M9.53449 0.119L6.42349 0.1115H6.42199C3.14149 0.1115 0.571991 2.68175 0.571991 5.963C0.571991 9.0365 2.96149 11.3675 6.17074 11.4905V14.3615C6.17074 14.4425 6.20374 14.576 6.26074 14.6637C6.36724 14.8325 6.54874 14.924 6.73474 14.924C6.83824 14.924 6.94249 14.8955 7.03624 14.8355C7.23424 14.7095 11.891 11.7305 13.1022 10.706C14.5287 9.4985 15.3822 7.7285 15.3845 5.972V5.95925C15.38 2.684 12.812 0.119 9.53449 0.11825V0.119ZM12.3747 9.848C11.5242 10.568 8.72824 12.4017 7.29574 13.3302V10.94C7.29574 10.6295 7.04449 10.3775 6.73324 10.3775H6.43624C3.69124 10.3775 1.69774 8.5205 1.69774 5.963C1.69774 3.3125 3.77374 1.2365 6.42274 1.2365L9.53299 1.244H9.53449C12.1835 1.244 14.2595 3.3185 14.261 5.966C14.2587 7.3985 13.5545 8.849 12.3755 9.848H12.3747Z" fill="#6E767D"/>
</svg>
