<svg width="16" height="15" viewBox="0 0 16 15" fill="none" xmlns="http://www.w3.org/2000/svg">
<path d="M12.1475 4.04L8.39749 0.290003C8.17774 0.0702532 7.82149 0.0702532 7.60249 0.290003L3.85249 4.04C3.63199 4.25975 3.63199 4.616 3.85249 4.835C4.07299 5.054 4.42774 5.0555 4.64749 4.835L7.43749 2.045V9.6875C7.43749 9.998 7.68949 10.25 7.99999 10.25C8.31049 10.25 8.56249 9.998 8.56249 9.6875V2.045L11.3525 4.835C11.462 4.94525 11.606 5 11.75 5C11.894 5 12.038 4.946 12.1475 4.835C12.3672 4.61525 12.3672 4.25975 12.1475 4.04Z" fill="#6E767D"/>
<path d="M13.781 14.8955H2.219C1.271 14.8955 0.5 14.1245 0.5 13.1765V8.9375C0.5 8.627 0.752 8.375 1.0625 8.375C1.373 8.375 1.625 8.627 1.625 8.9375V13.1765C1.625 13.5043 1.89125 13.7705 2.219 13.7705H13.781C14.1088 13.7705 14.375 13.5043 14.375 13.1765V8.9375C14.375 8.627 14.627 8.375 14.9375 8.375C15.248 8.375 15.5 8.627 15.5 8.9375V13.1765C15.5 14.1245 14.729 14.8955 13.781 14.8955Z" fill="#6E767D"/>
</svg>
