<svg width="24" height="22" viewBox="0 0 24 22" fill="none" xmlns="http://www.w3.org/2000/svg">
<path d="M23.3317 6.20084L12.3868 0.291256C12.1452 0.161256 11.8559 0.161256 11.6143 0.291256L0.671596 6.20084C0.277263 6.41426 0.12993 6.90717 0.343346 7.30259C0.489596 7.57342 0.77018 7.72834 1.05835 7.72834C1.18835 7.72834 1.3216 7.69584 1.44401 7.63084L2.32693 7.15417L4.09168 19.6266C4.32351 20.9428 5.50868 21.8604 6.97118 21.8604H17.0267C18.4913 21.8604 19.6754 20.9418 19.9116 19.5995L21.6731 7.15201L22.5593 7.63084C22.9536 7.83992 23.4476 7.69584 23.661 7.30151C23.8733 6.90826 23.726 6.41534 23.3317 6.20084V6.20084ZM18.3072 19.3449C18.1913 20.0014 17.5456 20.2354 17.0288 20.2354H6.97335C6.45335 20.2354 5.80876 20.0014 5.69718 19.3709L3.85335 6.33084L12 1.93034L20.1488 6.32867L18.3072 19.3449V19.3449Z" fill="white"/>
<path d="M7.90503 11.1993C7.90503 13.457 9.74128 15.2943 12 15.2943C14.2588 15.2943 16.095 13.457 16.095 11.1993C16.095 8.94167 14.2588 7.10434 12 7.10434C9.74128 7.10434 7.90503 8.94167 7.90503 11.1993ZM14.47 11.1993C14.47 12.5622 13.3629 13.6693 12 13.6693C10.6372 13.6693 9.53003 12.5622 9.53003 11.1993C9.53003 9.83651 10.6372 8.72934 12 8.72934C13.3629 8.72934 14.47 9.83651 14.47 11.1993Z" fill="white"/>
</svg>
