<svg width="16" height="15" viewBox="0 0 16 15" fill="none" xmlns="http://www.w3.org/2000/svg">
<path d="M8 14.666H7.9895C6.05225 14.63 0.462497 9.5795 0.462497 4.796C0.462497 2.498 2.35625 0.480499 4.51475 0.480499C6.23225 0.480499 7.38725 1.6655 7.99925 2.528C8.60975 1.667 9.76475 0.480499 11.483 0.480499C13.643 0.480499 15.536 2.498 15.536 4.79675C15.536 9.57875 9.9455 14.6292 8.00825 14.6645H8V14.666ZM4.5155 1.60625C2.9555 1.60625 1.58825 3.09725 1.58825 4.7975C1.58825 9.1025 6.86375 13.4945 8.00075 13.541C9.13925 13.4945 14.4132 9.10325 14.4132 4.7975C14.4132 3.09725 13.046 1.60625 11.486 1.60625C9.59 1.60625 8.531 3.80825 8.522 3.83C8.3495 4.2515 7.655 4.2515 7.48175 3.83C7.47125 3.8075 6.413 1.60625 4.51625 1.60625H4.5155Z" fill="#6E767D"/>
</svg>
