<svg width="22" height="22" viewBox="0 0 22 22" fill="none" xmlns="http://www.w3.org/2000/svg">
<path d="M19.3958 21.8333H2.60413C1.26079 21.8333 0.166626 20.7392 0.166626 19.3958V2.60417C0.166626 1.26084 1.26079 0.166672 2.60413 0.166672H19.3958C20.7391 0.166672 21.8333 1.26084 21.8333 2.60417V19.3958C21.8333 20.7392 20.7391 21.8333 19.3958 21.8333ZM2.60413 1.79167C2.15563 1.79167 1.79163 2.15676 1.79163 2.60417V19.3958C1.79163 19.8433 2.15563 20.2083 2.60413 20.2083H19.3958C19.8443 20.2083 20.2083 19.8433 20.2083 19.3958V2.60417C20.2083 2.15676 19.8443 1.79167 19.3958 1.79167H2.60413Z" fill="white"/>
<path d="M16.4166 7.36H5.58325C5.13475 7.36 4.77075 6.99492 4.77075 6.5475C4.77075 6.10008 5.13475 5.735 5.58325 5.735H16.4166C16.8651 5.735 17.2291 6.09792 17.2291 6.5475C17.2291 6.99708 16.8651 7.36 16.4166 7.36ZM16.4166 11.8125H5.58325C5.13475 11.8125 4.77075 11.4485 4.77075 11C4.77075 10.5515 5.13475 10.1875 5.58325 10.1875H16.4166C16.8651 10.1875 17.2291 10.5515 17.2291 11C17.2291 11.4485 16.8651 11.8125 16.4166 11.8125ZM10.9999 16.265H5.58325C5.13475 16.265 4.77075 15.9021 4.77075 15.4525C4.77075 15.0029 5.13475 14.64 5.58325 14.64H10.9999C11.4484 14.64 11.8124 15.0051 11.8124 15.4525C11.8124 15.8999 11.4484 16.265 10.9999 16.265Z" fill="white"/>
</svg>
