<svg width="22" height="20" viewBox="0 0 22 20" fill="none" xmlns="http://www.w3.org/2000/svg">
<path d="M18.8541 0.269501H3.14579C1.50238 0.269501 0.166626 1.60633 0.166626 3.25083V16.7871C0.166626 18.4316 1.50238 19.7695 3.14579 19.7695H18.8541C20.4975 19.7695 21.8333 18.4316 21.8333 16.7871V3.25083C21.8333 1.60633 20.4975 0.269501 18.8541 0.269501ZM3.14579 1.8945H18.8541C19.6016 1.8945 20.2083 2.50117 20.2083 3.24867V4.02217L11.4875 9.83642C11.1917 10.0314 10.8093 10.0336 10.5125 9.83425L1.79163 4.02217V3.24867C1.79163 2.50117 2.39829 1.8945 3.14579 1.8945V1.8945ZM18.8541 18.1423H3.14579C2.39829 18.1423 1.79163 17.5357 1.79163 16.7882V5.92667L9.63496 11.1592C10.0499 11.4365 10.5255 11.5752 11 11.5752C11.4766 11.5752 11.95 11.4365 12.365 11.1603L20.2083 5.92775V16.7849C20.2083 17.5324 19.6016 18.1391 18.8541 18.1391V18.1423Z" fill="white"/>
</svg>
