<svg width="24" height="24" viewBox="0 0 24 24" fill="none" xmlns="http://www.w3.org/2000/svg">
<path d="M16.875 10.1042C15.8295 10.1042 14.9791 10.9567 14.9791 12C14.9791 13.0432 15.8285 13.8958 16.875 13.8958C17.9193 13.8958 18.7708 13.0443 18.7708 12C18.7708 10.9557 17.9193 10.1042 16.875 10.1042ZM16.875 12.8125C16.4265 12.8125 16.0625 12.4485 16.0625 12C16.0625 11.5526 16.4275 11.1875 16.875 11.1875C17.3224 11.1875 17.6875 11.5515 17.6875 12C17.6875 12.4474 17.3235 12.8125 16.875 12.8125ZM12 10.1042C10.9535 10.1042 10.1041 10.9567 10.1041 12C10.1041 13.0432 10.9545 13.8958 12 13.8958C13.0454 13.8958 13.8958 13.0443 13.8958 12C13.8958 10.9557 13.0465 10.1042 12 10.1042ZM12 12.8125C11.5515 12.8125 11.1875 12.4485 11.1875 12C11.1875 11.5526 11.5525 11.1875 12 11.1875C12.4474 11.1875 12.8125 11.5515 12.8125 12C12.8125 12.4474 12.4485 12.8125 12 12.8125ZM7.12496 10.1042C6.07954 10.1042 5.22913 10.9567 5.22913 12C5.22913 13.0432 6.07954 13.8958 7.12496 13.8958C8.16929 13.8958 9.02079 13.0443 9.02079 12C9.02079 10.9557 8.16821 10.1042 7.12496 10.1042ZM7.12496 12.8125C6.67646 12.8125 6.31246 12.4485 6.31246 12C6.31246 11.5526 6.67754 11.1875 7.12496 11.1875C7.57238 11.1875 7.93746 11.5515 7.93746 12C7.93746 12.4474 7.57346 12.8125 7.12496 12.8125Z" fill="white"/>
<path d="M12 23.6458C5.57796 23.6458 0.354126 18.422 0.354126 12C0.354126 5.578 5.57796 0.354166 12 0.354166C18.422 0.354166 23.6458 5.578 23.6458 12C23.6458 18.422 18.422 23.6458 12 23.6458ZM12 1.97917C6.47496 1.97917 1.97913 6.475 1.97913 12C1.97913 17.525 6.47496 22.0208 12 22.0208C17.525 22.0208 22.0208 17.525 22.0208 12C22.0208 6.475 17.525 1.97917 12 1.97917Z" fill="white"/>
</svg>
