<svg width="22" height="22" viewBox="0 0 22 22" fill="none" xmlns="http://www.w3.org/2000/svg">
<path d="M21.505 15.8403C21.4834 15.823 19.1867 14.0637 19.2268 9.30782C19.2484 6.56482 18.3471 4.12732 16.6842 2.4449C15.1946 0.935821 13.1774 0.101654 11.0054 0.0908203H10.9913C8.82027 0.101654 6.8031 0.93582 5.31244 2.44599C3.6506 4.1284 2.7471 6.56482 2.77094 9.30782C2.81102 13.9987 0.582604 15.7721 0.49377 15.8403C0.212104 16.0494 0.0972703 16.4145 0.206687 16.7482C0.317187 17.0818 0.629187 17.3061 0.978021 17.3061H6.30802C6.41852 19.8086 8.47144 21.8127 10.9989 21.8127C13.5263 21.8127 15.577 19.8086 15.6864 17.3061H21.0186C21.3674 17.3061 21.6794 17.0829 21.7878 16.7492C21.8994 16.4167 21.7845 16.0505 21.5029 15.8414L21.505 15.8403ZM10.9999 20.1845C9.36952 20.1845 8.04244 18.9094 7.93627 17.305H14.0636C13.9553 18.9083 12.6304 20.1867 10.9999 20.1867V20.1845ZM2.74494 15.68C3.5466 14.4537 4.42194 12.3997 4.39594 9.29265C4.37644 6.95265 5.0936 4.97882 6.46835 3.58674C7.65244 2.38749 9.26335 1.7234 10.9999 1.71582C12.7365 1.72449 14.3442 2.38749 15.5283 3.58782C16.9041 4.9799 17.6224 6.95265 17.6029 9.29374C17.5769 12.4007 18.4533 14.4558 19.2549 15.6811H2.74494V15.68Z" fill="white"/>
</svg>
