<svg width="20" height="23" viewBox="0 0 20 23" fill="none" xmlns="http://www.w3.org/2000/svg">
<path d="M10 11.8007C11.4679 11.8007 13.1114 11.6382 14.16 10.44C15.0419 9.4325 15.3279 7.87467 15.0332 5.682C14.6215 2.62158 12.7398 0.793999 10 0.793999C7.26027 0.793999 5.37852 2.62158 4.96685 5.68417C4.67219 7.87467 4.95819 9.4325 5.84002 10.44C6.88869 11.6392 8.5321 11.8007 10 11.8007V11.8007ZM6.57669 5.89867C6.75219 4.59867 7.42927 2.419 10 2.419C12.5708 2.419 13.2479 4.59975 13.4234 5.89867C13.6476 7.57783 13.4851 8.74458 12.9359 9.37075C12.4429 9.93408 11.5644 10.1757 10 10.1757C8.43569 10.1757 7.5571 9.93408 7.06419 9.37075C6.51494 8.74458 6.35244 7.57675 6.57669 5.89867ZM18.97 19.839C18.0199 16.0192 14.3312 13.3498 10 13.3498C5.66885 13.3498 1.9801 16.0192 1.03002 19.839C0.843686 20.5887 0.999686 21.3557 1.45794 21.9407C1.89994 22.504 2.5846 22.829 3.33535 22.829H16.6647C17.4154 22.829 18.1001 22.504 18.5421 21.9407C19.0014 21.3557 19.1564 20.5897 18.9689 19.839H18.97ZM17.2627 20.9397C17.1262 21.113 16.9204 21.2062 16.6647 21.2062H3.33535C3.08077 21.2062 2.87385 21.1141 2.73735 20.9397C2.58894 20.7512 2.54235 20.4933 2.60735 20.2312C3.37652 17.1382 6.41744 14.977 10 14.977C13.5826 14.977 16.6235 17.1372 17.3927 20.2312C17.4577 20.4933 17.4111 20.7512 17.2627 20.9397V20.9397Z" fill="white"/>
</svg>
