<svg width="20" height="20" viewBox="0 0 20 20" fill="none" xmlns="http://www.w3.org/2000/svg">
<path d="M9.99998 6.52585C8.08415 6.52585 6.52582 8.08418 6.52582 10C6.52582 11.9158 8.08415 13.4742 9.99998 13.4742C11.9158 13.4742 13.4742 11.9158 13.4742 10C13.4742 8.08418 11.9158 6.52585 9.99998 6.52585ZM9.99998 12.0992C8.84315 12.0992 7.90082 11.1587 7.90082 10C7.90082 8.84135 8.84498 7.90085 9.99998 7.90085C11.155 7.90085 12.0992 8.84135 12.0992 10C12.0992 11.1587 11.1568 12.0992 9.99998 12.0992Z" fill="#1DA1F2"/>
<path d="M10.33 19.5104H9.66815C8.58373 19.5104 7.69365 18.6964 7.59465 17.6184L7.58182 17.4837C7.5589 17.2206 7.39207 16.9951 7.14915 16.8933C6.88698 16.7833 6.61565 16.8338 6.41765 16.9988L6.31131 17.0877C5.51565 17.7523 4.24606 17.6954 3.50631 16.9593L3.03882 16.4918C2.27248 15.7218 2.21748 14.5173 2.91048 13.6868L3.00031 13.5787C3.17081 13.3752 3.21115 13.0993 3.11215 12.8573C3.01132 12.6079 2.78398 12.4411 2.51998 12.4173L2.38248 12.4044C1.30082 12.3063 0.487732 11.4144 0.487732 10.3309V9.66909C0.487732 8.58468 1.30173 7.69459 2.37973 7.59559L2.52273 7.58276C2.78398 7.55984 3.00857 7.39301 3.11123 7.14918C3.21207 6.90168 3.17081 6.62393 3.00123 6.42043L2.91507 6.31409C2.22115 5.48176 2.27523 4.27634 3.04065 3.50909L3.50998 3.03976C4.24698 2.30276 5.51565 2.24684 6.31498 2.91143L6.42131 3.00126C6.62115 3.16993 6.90531 3.21209 7.14548 3.11309C7.39298 3.01043 7.55981 2.78493 7.58273 2.52368L7.59556 2.38343C7.69365 1.30176 8.58556 0.489594 9.66906 0.489594H10.3309C11.4153 0.489594 12.3054 1.30359 12.4044 2.38159L12.4172 2.52459C12.4401 2.78584 12.6061 3.01043 12.8499 3.11126C13.1038 3.21851 13.3816 3.16809 13.5777 3.00401L13.6877 2.91051C14.4825 2.24776 15.7539 2.30368 16.4927 3.03884L16.9602 3.50818C17.7266 4.27634 17.7816 5.48176 17.0886 6.31318L16.9969 6.42134C16.8246 6.62301 16.7824 6.89984 16.8841 7.14368C16.9868 7.39118 17.2141 7.55618 17.4763 7.58184L17.6156 7.59468C18.6973 7.69276 19.5104 8.58468 19.5104 9.66818V10.3309C19.5104 11.4153 18.6964 12.3054 17.6184 12.4044L17.4763 12.4173C17.216 12.4393 16.9905 12.6052 16.8896 12.8481C16.7861 13.0974 16.8282 13.3743 16.9969 13.5768L17.0886 13.6868C17.7816 14.5164 17.7266 15.7218 16.9602 16.4918L16.4927 16.9593C15.753 17.6963 14.4852 17.7513 13.6877 17.0877L13.5823 16.9997C13.3834 16.8319 13.0965 16.7888 12.8581 16.8878C12.6079 16.9923 12.4411 17.2178 12.4181 17.48L12.4053 17.6175C12.3072 18.6928 11.4153 19.5058 10.3318 19.5058L10.33 19.5104ZM6.8714 15.4588C7.1464 15.4588 7.41498 15.5138 7.6689 15.6192C8.39306 15.9198 8.88257 16.5853 8.95223 17.3572L8.96507 17.4919C8.99898 17.8586 9.30148 18.1336 9.6709 18.1336H10.3327C10.6994 18.1336 11.0019 17.8586 11.0367 17.4919L11.0496 17.3563C11.1192 16.5844 11.6087 15.9198 12.3256 15.6219C13.0525 15.3194 13.8802 15.4551 14.4641 15.9428L14.5677 16.0289C14.7309 16.1646 14.9032 16.1939 15.0196 16.1939C15.2085 16.1939 15.3863 16.1206 15.5201 15.9858L15.9876 15.5183C16.248 15.258 16.2672 14.8492 16.0316 14.5668L15.94 14.4568C15.4431 13.861 15.3194 13.0452 15.6173 12.3274C15.9161 11.6033 16.5816 11.1174 17.3535 11.0468L17.4956 11.034C17.8595 11.0001 18.1372 10.6976 18.1372 10.3282V9.66634C18.1372 9.29968 17.8595 8.99718 17.4937 8.96234L17.3544 8.94951C16.5789 8.87801 15.9152 8.39034 15.6173 7.67259C15.3185 6.95026 15.4431 6.13443 15.9409 5.53951L16.0326 5.43134C16.2681 5.14718 16.2489 4.73834 15.9886 4.47801L15.5211 4.01051C15.3872 3.87576 15.2094 3.80243 15.0206 3.80243C14.9041 3.80243 14.7318 3.83176 14.5696 3.96743L14.4596 4.05909C13.8784 4.54309 13.0387 4.67326 12.3311 4.38359C11.6087 4.08384 11.1211 3.41926 11.0505 2.64559L11.0376 2.50351C11.0056 2.13959 10.7031 1.86184 10.3346 1.86184H9.67181C9.30515 1.86184 9.00265 2.13959 8.96781 2.50534L8.95498 2.64468C8.88531 3.41743 8.39765 4.08201 7.68082 4.37993C6.9594 4.67876 6.1289 4.54768 5.54498 4.05909L5.43681 3.97109C5.27181 3.83359 5.09948 3.80609 4.98307 3.80609C4.79423 3.80609 4.6164 3.87943 4.48256 4.01326L4.01323 4.48076C3.75473 4.74109 3.73548 5.14993 3.97106 5.43226L4.06273 5.54043C4.55773 6.13901 4.68331 6.95576 4.3854 7.67168C4.08565 8.39401 3.42107 8.88168 2.64831 8.95226L2.50531 8.96509C2.1414 8.99901 1.86365 9.30151 1.86365 9.67093V10.3328C1.86365 10.6994 2.1414 11.0019 2.50715 11.0368L2.64465 11.0496C3.42198 11.1211 4.08657 11.6106 4.38357 12.3293C4.68148 13.0498 4.55773 13.8647 4.05998 14.4605L3.97198 14.5659C3.73365 14.8501 3.75381 15.2589 4.01415 15.5193L4.48165 15.9868C4.61548 16.1215 4.79331 16.1948 4.98215 16.1948C5.09857 16.1948 5.2709 16.1673 5.43315 16.0298L5.53948 15.9418C5.91165 15.6338 6.38556 15.4615 6.8714 15.4615V15.4588Z" fill="#1DA1F2"/>
</svg>
