<svg width="18" height="13" viewBox="0 0 18 13" fill="none" xmlns="http://www.w3.org/2000/svg">
<path d="M17.8275 9.19C17.6085 8.97025 17.2523 8.97025 17.0325 9.19L15.3675 10.855V3.175C15.3675 1.624 14.1053 0.362504 12.555 0.362504H8.1675C7.857 0.362504 7.605 0.614504 7.605 0.925004C7.605 1.2355 7.857 1.4875 8.1675 1.4875H12.555C13.485 1.4875 14.2425 2.245 14.2425 3.175V10.855L12.5775 9.19C12.3578 8.97025 12.0015 8.97025 11.7825 9.19C11.5635 9.40975 11.562 9.766 11.7825 9.985L14.4075 12.61C14.5163 12.7203 14.6603 12.775 14.805 12.775C14.9498 12.775 15.0923 12.721 15.2025 12.61L17.8275 9.985C18.048 9.766 18.048 9.40975 17.8275 9.19ZM9.8325 11.65H5.445C4.515 11.65 3.7575 10.8925 3.7575 9.96251V2.2825L5.4225 3.9475C5.5335 4.05775 5.6775 4.1125 5.8215 4.1125C5.9655 4.1125 6.1095 4.05775 6.219 3.9475C6.43875 3.72775 6.43875 3.3715 6.219 3.1525L3.594 0.527504C3.37425 0.307004 3.018 0.307004 2.799 0.527504L0.174004 3.1525C-0.0464962 3.3715 -0.0464962 3.72775 0.174004 3.9475C0.394504 4.16725 0.749254 4.16725 0.969004 3.9475L2.634 2.2825V9.96251C2.634 11.5135 3.89625 12.775 5.4465 12.775H9.834C10.1445 12.775 10.3965 12.523 10.3965 12.2125C10.3965 11.902 10.1438 11.65 9.834 11.65H9.8325Z" fill="#6E767D"/>
</svg>
